<svg id="Layer_1" data-name="Layer 1" xmlns="http://www.w3.org/2000/svg" viewBox="0 0 174.25 209.78"><defs><style>.cls-1{fill:#faaf40;}</style></defs><title>nav-logo</title><path class="cls-1" d="M194.63,67.74a67.81,67.81,0,0,1-67.74,67.73H92.28L70.51,188a35.21,35.21,0,0,1-46,19.05c10-24,26.35-63.61,41.8-100.91,35.63-18.53,89.53-30.76,89.53-30.76l14.37,9.42V61.06C171.36,45.75,156.49,46,156.49,46H117.2L103.39,35.2H55.58A35.2,35.2,0,0,1,20.38,0H126.89A67.82,67.82,0,0,1,194.63,67.74ZM80.88,44l19.84,9L105.46,44Z" transform="translate(-20.38)"/></svg>